<mxfile host="app.diagrams.net" agent="Mozilla/5.0 (Windows NT 10.0; Win64; x64) AppleWebKit/537.36 (KHTML, like Gecko) Chrome/136.0.0.0 Safari/537.36" version="27.0.6">
  <diagram name="Seite-1" id="jzkydR0b8gE9zIQLeOUM">
    <mxGraphModel dx="2864" dy="1061" grid="1" gridSize="10" guides="1" tooltips="1" connect="1" arrows="1" fold="1" page="1" pageScale="1" pageWidth="827" pageHeight="1169" math="0" shadow="0">
      <root>
        <mxCell id="0" />
        <mxCell id="1" parent="0" />
        <mxCell id="G2tgGchUtFlRo7yquWQq-2" value="Kunde" style="rounded=0;whiteSpace=wrap;html=1;" parent="1" vertex="1">
          <mxGeometry x="150" y="100" width="100" height="40" as="geometry" />
        </mxCell>
        <mxCell id="G2tgGchUtFlRo7yquWQq-10" value="" style="rounded=0;orthogonalLoop=1;jettySize=auto;html=1;strokeColor=default;edgeStyle=orthogonalEdgeStyle;endArrow=none;startFill=0;" parent="1" source="G2tgGchUtFlRo7yquWQq-5" target="G2tgGchUtFlRo7yquWQq-2" edge="1">
          <mxGeometry relative="1" as="geometry">
            <mxPoint x="210" y="100" as="targetPoint" />
            <Array as="points">
              <mxPoint x="160" y="50" />
            </Array>
          </mxGeometry>
        </mxCell>
        <mxCell id="G2tgGchUtFlRo7yquWQq-5" value="&lt;u&gt;&lt;font style=&quot;color: rgb(179, 179, 179);&quot;&gt;kunden_id&lt;/font&gt;&lt;/u&gt;" style="ellipse;whiteSpace=wrap;html=1;strokeColor=#B3B3B3;" parent="1" vertex="1">
          <mxGeometry x="20" y="30" width="120" height="40" as="geometry" />
        </mxCell>
        <mxCell id="G2tgGchUtFlRo7yquWQq-15" value="" style="edgeStyle=orthogonalEdgeStyle;rounded=0;orthogonalLoop=1;jettySize=auto;html=1;endArrow=none;startFill=0;" parent="1" source="G2tgGchUtFlRo7yquWQq-6" target="G2tgGchUtFlRo7yquWQq-2" edge="1">
          <mxGeometry relative="1" as="geometry">
            <Array as="points">
              <mxPoint x="140" y="100" />
              <mxPoint x="140" y="110" />
            </Array>
          </mxGeometry>
        </mxCell>
        <mxCell id="G2tgGchUtFlRo7yquWQq-6" value="&lt;u&gt;name&lt;/u&gt;" style="ellipse;whiteSpace=wrap;html=1;" parent="1" vertex="1">
          <mxGeometry x="10" y="80" width="120" height="40" as="geometry" />
        </mxCell>
        <mxCell id="G2tgGchUtFlRo7yquWQq-7" value="adresse" style="ellipse;whiteSpace=wrap;html=1;" parent="1" vertex="1">
          <mxGeometry x="10" y="130" width="120" height="40" as="geometry" />
        </mxCell>
        <mxCell id="G2tgGchUtFlRo7yquWQq-8" value="kontonr" style="ellipse;whiteSpace=wrap;html=1;" parent="1" vertex="1">
          <mxGeometry x="20" y="180" width="120" height="40" as="geometry" />
        </mxCell>
        <mxCell id="G2tgGchUtFlRo7yquWQq-16" style="edgeStyle=orthogonalEdgeStyle;rounded=0;orthogonalLoop=1;jettySize=auto;html=1;entryX=0;entryY=0.5;entryDx=0;entryDy=0;endArrow=none;startFill=0;" parent="1" source="G2tgGchUtFlRo7yquWQq-7" target="G2tgGchUtFlRo7yquWQq-2" edge="1">
          <mxGeometry relative="1" as="geometry">
            <Array as="points">
              <mxPoint x="140" y="150" />
              <mxPoint x="140" y="120" />
            </Array>
          </mxGeometry>
        </mxCell>
        <mxCell id="G2tgGchUtFlRo7yquWQq-17" style="edgeStyle=orthogonalEdgeStyle;rounded=0;orthogonalLoop=1;jettySize=auto;html=1;entryX=0.1;entryY=1.007;entryDx=0;entryDy=0;entryPerimeter=0;endArrow=none;startFill=0;" parent="1" source="G2tgGchUtFlRo7yquWQq-8" target="G2tgGchUtFlRo7yquWQq-2" edge="1">
          <mxGeometry relative="1" as="geometry">
            <Array as="points">
              <mxPoint x="160" y="200" />
            </Array>
          </mxGeometry>
        </mxCell>
        <mxCell id="G2tgGchUtFlRo7yquWQq-25" style="edgeStyle=orthogonalEdgeStyle;rounded=0;orthogonalLoop=1;jettySize=auto;html=1;endArrow=none;startFill=0;" parent="1" source="G2tgGchUtFlRo7yquWQq-18" target="G2tgGchUtFlRo7yquWQq-21" edge="1">
          <mxGeometry relative="1" as="geometry">
            <Array as="points">
              <mxPoint x="400" y="90" />
              <mxPoint x="280" y="90" />
            </Array>
          </mxGeometry>
        </mxCell>
        <mxCell id="G2tgGchUtFlRo7yquWQq-26" style="edgeStyle=orthogonalEdgeStyle;rounded=0;orthogonalLoop=1;jettySize=auto;html=1;entryX=0.5;entryY=1;entryDx=0;entryDy=0;endArrow=none;startFill=0;" parent="1" source="G2tgGchUtFlRo7yquWQq-18" target="G2tgGchUtFlRo7yquWQq-19" edge="1">
          <mxGeometry relative="1" as="geometry" />
        </mxCell>
        <mxCell id="G2tgGchUtFlRo7yquWQq-27" style="edgeStyle=orthogonalEdgeStyle;rounded=0;orthogonalLoop=1;jettySize=auto;html=1;endArrow=none;startFill=0;" parent="1" source="G2tgGchUtFlRo7yquWQq-18" target="G2tgGchUtFlRo7yquWQq-20" edge="1">
          <mxGeometry relative="1" as="geometry">
            <Array as="points">
              <mxPoint x="440" y="90" />
              <mxPoint x="540" y="90" />
            </Array>
          </mxGeometry>
        </mxCell>
        <mxCell id="G2tgGchUtFlRo7yquWQq-18" value="Kauf" style="rounded=0;whiteSpace=wrap;html=1;" parent="1" vertex="1">
          <mxGeometry x="370" y="100" width="100" height="40" as="geometry" />
        </mxCell>
        <mxCell id="G2tgGchUtFlRo7yquWQq-19" value="&lt;u&gt;kauf_id&lt;/u&gt;" style="ellipse;whiteSpace=wrap;html=1;" parent="1" vertex="1">
          <mxGeometry x="354" y="20" width="120" height="40" as="geometry" />
        </mxCell>
        <mxCell id="G2tgGchUtFlRo7yquWQq-20" value="kunden_id" style="ellipse;whiteSpace=wrap;html=1;" parent="1" vertex="1">
          <mxGeometry x="480" y="20" width="120" height="40" as="geometry" />
        </mxCell>
        <mxCell id="G2tgGchUtFlRo7yquWQq-21" value="zeit" style="ellipse;whiteSpace=wrap;html=1;" parent="1" vertex="1">
          <mxGeometry x="220" y="20" width="120" height="40" as="geometry" />
        </mxCell>
        <mxCell id="G2tgGchUtFlRo7yquWQq-24" style="edgeStyle=orthogonalEdgeStyle;rounded=0;orthogonalLoop=1;jettySize=auto;html=1;endArrow=none;startFill=0;" parent="1" source="G2tgGchUtFlRo7yquWQq-22" target="G2tgGchUtFlRo7yquWQq-18" edge="1">
          <mxGeometry relative="1" as="geometry" />
        </mxCell>
        <mxCell id="7b5LlYf9EWcfWmNwyogH-36" value="n" style="edgeLabel;html=1;align=center;verticalAlign=middle;resizable=0;points=[];" vertex="1" connectable="0" parent="G2tgGchUtFlRo7yquWQq-24">
          <mxGeometry x="0.6867" y="2" relative="1" as="geometry">
            <mxPoint as="offset" />
          </mxGeometry>
        </mxCell>
        <mxCell id="G2tgGchUtFlRo7yquWQq-22" value="tÃ¤tigt" style="rhombus;whiteSpace=wrap;html=1;" parent="1" vertex="1">
          <mxGeometry x="270" y="105" width="80" height="30" as="geometry" />
        </mxCell>
        <mxCell id="G2tgGchUtFlRo7yquWQq-23" style="edgeStyle=orthogonalEdgeStyle;rounded=0;orthogonalLoop=1;jettySize=auto;html=1;entryX=0.024;entryY=0.47;entryDx=0;entryDy=0;entryPerimeter=0;endArrow=none;startFill=0;" parent="1" source="G2tgGchUtFlRo7yquWQq-2" target="G2tgGchUtFlRo7yquWQq-22" edge="1">
          <mxGeometry relative="1" as="geometry" />
        </mxCell>
        <mxCell id="7b5LlYf9EWcfWmNwyogH-35" value="1" style="edgeLabel;html=1;align=center;verticalAlign=middle;resizable=0;points=[];" vertex="1" connectable="0" parent="G2tgGchUtFlRo7yquWQq-23">
          <mxGeometry x="-0.1754" y="1" relative="1" as="geometry">
            <mxPoint as="offset" />
          </mxGeometry>
        </mxCell>
        <mxCell id="G2tgGchUtFlRo7yquWQq-47" value="" style="edgeStyle=orthogonalEdgeStyle;rounded=0;orthogonalLoop=1;jettySize=auto;html=1;endArrow=none;startFill=0;" parent="1" source="G2tgGchUtFlRo7yquWQq-28" target="G2tgGchUtFlRo7yquWQq-43" edge="1">
          <mxGeometry relative="1" as="geometry">
            <Array as="points">
              <mxPoint x="650" y="180" />
              <mxPoint x="710" y="180" />
            </Array>
          </mxGeometry>
        </mxCell>
        <mxCell id="G2tgGchUtFlRo7yquWQq-49" style="edgeStyle=orthogonalEdgeStyle;rounded=0;orthogonalLoop=1;jettySize=auto;html=1;endArrow=none;startFill=0;" parent="1" source="G2tgGchUtFlRo7yquWQq-28" target="G2tgGchUtFlRo7yquWQq-42" edge="1">
          <mxGeometry relative="1" as="geometry">
            <Array as="points">
              <mxPoint x="630" y="180" />
              <mxPoint x="580" y="180" />
            </Array>
          </mxGeometry>
        </mxCell>
        <mxCell id="G2tgGchUtFlRo7yquWQq-51" style="edgeStyle=orthogonalEdgeStyle;rounded=0;orthogonalLoop=1;jettySize=auto;html=1;endArrow=none;startFill=0;" parent="1" source="G2tgGchUtFlRo7yquWQq-28" target="G2tgGchUtFlRo7yquWQq-45" edge="1">
          <mxGeometry relative="1" as="geometry">
            <Array as="points">
              <mxPoint x="640" y="280" />
              <mxPoint x="640" y="280" />
            </Array>
          </mxGeometry>
        </mxCell>
        <mxCell id="G2tgGchUtFlRo7yquWQq-52" style="edgeStyle=orthogonalEdgeStyle;rounded=0;orthogonalLoop=1;jettySize=auto;html=1;entryX=0.062;entryY=0.303;entryDx=0;entryDy=0;entryPerimeter=0;endArrow=none;startFill=0;" parent="1" target="G2tgGchUtFlRo7yquWQq-46" edge="1">
          <mxGeometry relative="1" as="geometry">
            <mxPoint x="650.0044927536233" y="239.98000000000002" as="sourcePoint" />
            <mxPoint x="732.51" y="265.87" as="targetPoint" />
            <Array as="points">
              <mxPoint x="670" y="240" />
              <mxPoint x="670" y="260" />
              <mxPoint x="740" y="260" />
              <mxPoint x="740" y="266" />
              <mxPoint x="737" y="266" />
            </Array>
          </mxGeometry>
        </mxCell>
        <mxCell id="G2tgGchUtFlRo7yquWQq-54" value="" style="edgeStyle=orthogonalEdgeStyle;rounded=0;orthogonalLoop=1;jettySize=auto;html=1;endArrow=none;startFill=0;" parent="1" source="G2tgGchUtFlRo7yquWQq-28" target="G2tgGchUtFlRo7yquWQq-53" edge="1">
          <mxGeometry relative="1" as="geometry" />
        </mxCell>
        <mxCell id="G2tgGchUtFlRo7yquWQq-28" value="Produkt" style="rounded=0;whiteSpace=wrap;html=1;" parent="1" vertex="1">
          <mxGeometry x="590" y="200" width="100" height="40" as="geometry" />
        </mxCell>
        <mxCell id="G2tgGchUtFlRo7yquWQq-59" value="" style="edgeStyle=orthogonalEdgeStyle;rounded=0;orthogonalLoop=1;jettySize=auto;html=1;endArrow=none;startFill=0;" parent="1" source="G2tgGchUtFlRo7yquWQq-29" target="G2tgGchUtFlRo7yquWQq-57" edge="1">
          <mxGeometry relative="1" as="geometry">
            <Array as="points">
              <mxPoint x="1000" y="155" />
              <mxPoint x="1000" y="155" />
            </Array>
          </mxGeometry>
        </mxCell>
        <mxCell id="G2tgGchUtFlRo7yquWQq-29" value="Kategorie" style="rounded=0;whiteSpace=wrap;html=1;" parent="1" vertex="1">
          <mxGeometry x="880" y="150" width="100" height="40" as="geometry" />
        </mxCell>
        <mxCell id="G2tgGchUtFlRo7yquWQq-66" value="" style="edgeStyle=orthogonalEdgeStyle;rounded=0;orthogonalLoop=1;jettySize=auto;html=1;endArrow=none;startFill=0;" parent="1" source="G2tgGchUtFlRo7yquWQq-30" target="G2tgGchUtFlRo7yquWQq-62" edge="1">
          <mxGeometry relative="1" as="geometry" />
        </mxCell>
        <mxCell id="G2tgGchUtFlRo7yquWQq-69" value="" style="edgeStyle=orthogonalEdgeStyle;rounded=0;orthogonalLoop=1;jettySize=auto;html=1;endArrow=none;startFill=0;" parent="1" source="G2tgGchUtFlRo7yquWQq-30" target="G2tgGchUtFlRo7yquWQq-64" edge="1">
          <mxGeometry relative="1" as="geometry">
            <Array as="points">
              <mxPoint x="970" y="380" />
              <mxPoint x="970" y="410" />
            </Array>
          </mxGeometry>
        </mxCell>
        <mxCell id="G2tgGchUtFlRo7yquWQq-70" value="" style="edgeStyle=orthogonalEdgeStyle;rounded=0;orthogonalLoop=1;jettySize=auto;html=1;endArrow=none;startFill=0;" parent="1" source="G2tgGchUtFlRo7yquWQq-30" target="G2tgGchUtFlRo7yquWQq-63" edge="1">
          <mxGeometry relative="1" as="geometry" />
        </mxCell>
        <mxCell id="G2tgGchUtFlRo7yquWQq-30" value="Filiale" style="rounded=0;whiteSpace=wrap;html=1;" parent="1" vertex="1">
          <mxGeometry x="850" y="350" width="100" height="40" as="geometry" />
        </mxCell>
        <mxCell id="G2tgGchUtFlRo7yquWQq-87" style="edgeStyle=orthogonalEdgeStyle;rounded=0;orthogonalLoop=1;jettySize=auto;html=1;entryX=0.5;entryY=1;entryDx=0;entryDy=0;endArrow=none;startFill=0;" parent="1" source="G2tgGchUtFlRo7yquWQq-31" target="G2tgGchUtFlRo7yquWQq-84" edge="1">
          <mxGeometry relative="1" as="geometry" />
        </mxCell>
        <mxCell id="G2tgGchUtFlRo7yquWQq-96" style="edgeStyle=orthogonalEdgeStyle;rounded=0;orthogonalLoop=1;jettySize=auto;html=1;endArrow=none;startFill=0;" parent="1" source="G2tgGchUtFlRo7yquWQq-31" target="G2tgGchUtFlRo7yquWQq-77" edge="1">
          <mxGeometry relative="1" as="geometry" />
        </mxCell>
        <mxCell id="G2tgGchUtFlRo7yquWQq-97" style="edgeStyle=orthogonalEdgeStyle;rounded=0;orthogonalLoop=1;jettySize=auto;html=1;entryX=0;entryY=0;entryDx=0;entryDy=0;endArrow=none;startFill=0;" parent="1" source="G2tgGchUtFlRo7yquWQq-31" target="G2tgGchUtFlRo7yquWQq-79" edge="1">
          <mxGeometry relative="1" as="geometry">
            <Array as="points">
              <mxPoint x="380" y="340" />
              <mxPoint x="432" y="340" />
            </Array>
          </mxGeometry>
        </mxCell>
        <mxCell id="G2tgGchUtFlRo7yquWQq-98" style="edgeStyle=orthogonalEdgeStyle;rounded=0;orthogonalLoop=1;jettySize=auto;html=1;endArrow=none;startFill=0;" parent="1" source="G2tgGchUtFlRo7yquWQq-31" target="G2tgGchUtFlRo7yquWQq-81" edge="1">
          <mxGeometry relative="1" as="geometry">
            <Array as="points">
              <mxPoint x="270" y="280" />
              <mxPoint x="270" y="250" />
            </Array>
          </mxGeometry>
        </mxCell>
        <mxCell id="G2tgGchUtFlRo7yquWQq-31" value="Rezension" style="rounded=0;whiteSpace=wrap;html=1;" parent="1" vertex="1">
          <mxGeometry x="290" y="270" width="100" height="40" as="geometry" />
        </mxCell>
        <mxCell id="G2tgGchUtFlRo7yquWQq-88" style="edgeStyle=orthogonalEdgeStyle;rounded=0;orthogonalLoop=1;jettySize=auto;html=1;endArrow=none;startFill=0;" parent="1" source="G2tgGchUtFlRo7yquWQq-89" edge="1">
          <mxGeometry relative="1" as="geometry">
            <mxPoint x="600" y="240" as="targetPoint" />
            <Array as="points">
              <mxPoint x="600" y="430" />
            </Array>
          </mxGeometry>
        </mxCell>
        <mxCell id="G2tgGchUtFlRo7yquWQq-136" style="edgeStyle=orthogonalEdgeStyle;rounded=0;orthogonalLoop=1;jettySize=auto;html=1;endArrow=none;startFill=0;" parent="1" source="G2tgGchUtFlRo7yquWQq-32" target="G2tgGchUtFlRo7yquWQq-100" edge="1">
          <mxGeometry relative="1" as="geometry" />
        </mxCell>
        <mxCell id="G2tgGchUtFlRo7yquWQq-138" style="edgeStyle=orthogonalEdgeStyle;rounded=0;orthogonalLoop=1;jettySize=auto;html=1;endArrow=none;startFill=0;" parent="1" source="G2tgGchUtFlRo7yquWQq-32" target="G2tgGchUtFlRo7yquWQq-102" edge="1">
          <mxGeometry relative="1" as="geometry">
            <Array as="points">
              <mxPoint x="380" y="490" />
              <mxPoint x="380" y="490" />
            </Array>
          </mxGeometry>
        </mxCell>
        <mxCell id="G2tgGchUtFlRo7yquWQq-139" style="edgeStyle=orthogonalEdgeStyle;rounded=0;orthogonalLoop=1;jettySize=auto;html=1;endArrow=none;startFill=0;" parent="1" source="G2tgGchUtFlRo7yquWQq-32" target="G2tgGchUtFlRo7yquWQq-103" edge="1">
          <mxGeometry relative="1" as="geometry" />
        </mxCell>
        <mxCell id="7b5LlYf9EWcfWmNwyogH-2" style="edgeStyle=orthogonalEdgeStyle;rounded=0;orthogonalLoop=1;jettySize=auto;html=1;entryX=0;entryY=0.5;entryDx=0;entryDy=0;endArrow=none;startFill=0;" edge="1" parent="1" source="G2tgGchUtFlRo7yquWQq-32" target="7b5LlYf9EWcfWmNwyogH-1">
          <mxGeometry relative="1" as="geometry">
            <Array as="points">
              <mxPoint x="440" y="490" />
            </Array>
          </mxGeometry>
        </mxCell>
        <mxCell id="G2tgGchUtFlRo7yquWQq-32" value="Buch" style="rounded=0;whiteSpace=wrap;html=1;" parent="1" vertex="1">
          <mxGeometry x="370" y="430" width="100" height="40" as="geometry" />
        </mxCell>
        <mxCell id="7b5LlYf9EWcfWmNwyogH-4" style="edgeStyle=orthogonalEdgeStyle;rounded=0;orthogonalLoop=1;jettySize=auto;html=1;entryX=0.5;entryY=0;entryDx=0;entryDy=0;endArrow=none;startFill=0;" edge="1" parent="1" source="G2tgGchUtFlRo7yquWQq-33" target="7b5LlYf9EWcfWmNwyogH-3">
          <mxGeometry relative="1" as="geometry" />
        </mxCell>
        <mxCell id="7b5LlYf9EWcfWmNwyogH-6" style="edgeStyle=orthogonalEdgeStyle;rounded=0;orthogonalLoop=1;jettySize=auto;html=1;entryX=0.5;entryY=1;entryDx=0;entryDy=0;endArrow=none;startFill=0;" edge="1" parent="1" source="G2tgGchUtFlRo7yquWQq-33" target="7b5LlYf9EWcfWmNwyogH-5">
          <mxGeometry relative="1" as="geometry" />
        </mxCell>
        <mxCell id="G2tgGchUtFlRo7yquWQq-33" value="DVD_Person" style="rounded=0;whiteSpace=wrap;html=1;" parent="1" vertex="1">
          <mxGeometry x="50" y="710" width="100" height="40" as="geometry" />
        </mxCell>
        <mxCell id="G2tgGchUtFlRo7yquWQq-144" style="edgeStyle=orthogonalEdgeStyle;rounded=0;orthogonalLoop=1;jettySize=auto;html=1;endArrow=none;startFill=0;" parent="1" source="G2tgGchUtFlRo7yquWQq-34" target="G2tgGchUtFlRo7yquWQq-108" edge="1">
          <mxGeometry relative="1" as="geometry">
            <Array as="points">
              <mxPoint x="312" y="700" />
              <mxPoint x="312" y="725" />
            </Array>
          </mxGeometry>
        </mxCell>
        <mxCell id="G2tgGchUtFlRo7yquWQq-34" value="DVD" style="rounded=0;whiteSpace=wrap;html=1;" parent="1" vertex="1">
          <mxGeometry x="354" y="670" width="100" height="40" as="geometry" />
        </mxCell>
        <mxCell id="G2tgGchUtFlRo7yquWQq-122" style="edgeStyle=orthogonalEdgeStyle;rounded=0;orthogonalLoop=1;jettySize=auto;html=1;entryX=0;entryY=0.5;entryDx=0;entryDy=0;endArrow=none;startFill=0;" parent="1" source="G2tgGchUtFlRo7yquWQq-35" target="G2tgGchUtFlRo7yquWQq-110" edge="1">
          <mxGeometry relative="1" as="geometry" />
        </mxCell>
        <mxCell id="G2tgGchUtFlRo7yquWQq-123" style="edgeStyle=orthogonalEdgeStyle;rounded=0;orthogonalLoop=1;jettySize=auto;html=1;entryX=0;entryY=0.5;entryDx=0;entryDy=0;endArrow=none;startFill=0;" parent="1" source="G2tgGchUtFlRo7yquWQq-35" target="G2tgGchUtFlRo7yquWQq-111" edge="1">
          <mxGeometry relative="1" as="geometry">
            <Array as="points">
              <mxPoint x="780" y="480" />
            </Array>
          </mxGeometry>
        </mxCell>
        <mxCell id="G2tgGchUtFlRo7yquWQq-125" style="edgeStyle=orthogonalEdgeStyle;rounded=0;orthogonalLoop=1;jettySize=auto;html=1;endArrow=none;startFill=0;" parent="1" source="G2tgGchUtFlRo7yquWQq-35" target="G2tgGchUtFlRo7yquWQq-116" edge="1">
          <mxGeometry relative="1" as="geometry">
            <Array as="points">
              <mxPoint x="700" y="535" />
              <mxPoint x="680" y="535" />
            </Array>
          </mxGeometry>
        </mxCell>
        <mxCell id="7b5LlYf9EWcfWmNwyogH-10" value="m" style="edgeLabel;html=1;align=center;verticalAlign=middle;resizable=0;points=[];" vertex="1" connectable="0" parent="G2tgGchUtFlRo7yquWQq-125">
          <mxGeometry x="-0.6476" relative="1" as="geometry">
            <mxPoint as="offset" />
          </mxGeometry>
        </mxCell>
        <mxCell id="G2tgGchUtFlRo7yquWQq-35" value="CD" style="rounded=0;whiteSpace=wrap;html=1;" parent="1" vertex="1">
          <mxGeometry x="660" y="470" width="100" height="40" as="geometry" />
        </mxCell>
        <mxCell id="G2tgGchUtFlRo7yquWQq-36" value="Lied" style="rounded=0;whiteSpace=wrap;html=1;" parent="1" vertex="1">
          <mxGeometry x="630" y="630" width="100" height="40" as="geometry" />
        </mxCell>
        <mxCell id="G2tgGchUtFlRo7yquWQq-133" style="edgeStyle=orthogonalEdgeStyle;rounded=0;orthogonalLoop=1;jettySize=auto;html=1;entryX=0.424;entryY=0.009;entryDx=0;entryDy=0;endArrow=none;startFill=0;entryPerimeter=0;" parent="1" source="G2tgGchUtFlRo7yquWQq-37" target="G2tgGchUtFlRo7yquWQq-121" edge="1">
          <mxGeometry relative="1" as="geometry">
            <Array as="points">
              <mxPoint x="1110" y="600" />
              <mxPoint x="1110" y="630" />
              <mxPoint x="1111" y="630" />
            </Array>
          </mxGeometry>
        </mxCell>
        <mxCell id="G2tgGchUtFlRo7yquWQq-134" style="edgeStyle=orthogonalEdgeStyle;rounded=0;orthogonalLoop=1;jettySize=auto;html=1;entryX=0.5;entryY=1;entryDx=0;entryDy=0;endArrow=none;startFill=0;" parent="1" source="G2tgGchUtFlRo7yquWQq-37" target="G2tgGchUtFlRo7yquWQq-120" edge="1">
          <mxGeometry relative="1" as="geometry" />
        </mxCell>
        <mxCell id="G2tgGchUtFlRo7yquWQq-37" value="Kuenstler_in" style="rounded=0;whiteSpace=wrap;html=1;" parent="1" vertex="1">
          <mxGeometry x="940" y="570" width="100" height="40" as="geometry" />
        </mxCell>
        <mxCell id="G2tgGchUtFlRo7yquWQq-39" value="" style="edgeStyle=orthogonalEdgeStyle;rounded=0;orthogonalLoop=1;jettySize=auto;html=1;endArrow=none;startFill=0;" parent="1" source="G2tgGchUtFlRo7yquWQq-38" target="G2tgGchUtFlRo7yquWQq-18" edge="1">
          <mxGeometry relative="1" as="geometry" />
        </mxCell>
        <mxCell id="7b5LlYf9EWcfWmNwyogH-37" value="1" style="edgeLabel;html=1;align=center;verticalAlign=middle;resizable=0;points=[];" vertex="1" connectable="0" parent="G2tgGchUtFlRo7yquWQq-39">
          <mxGeometry x="0.7452" y="-1" relative="1" as="geometry">
            <mxPoint as="offset" />
          </mxGeometry>
        </mxCell>
        <mxCell id="G2tgGchUtFlRo7yquWQq-40" value="" style="edgeStyle=orthogonalEdgeStyle;rounded=0;orthogonalLoop=1;jettySize=auto;html=1;endArrow=none;startFill=0;exitX=1;exitY=0.5;exitDx=0;exitDy=0;" parent="1" source="G2tgGchUtFlRo7yquWQq-38" target="G2tgGchUtFlRo7yquWQq-28" edge="1">
          <mxGeometry relative="1" as="geometry">
            <Array as="points">
              <mxPoint x="540" y="205" />
              <mxPoint x="540" y="205" />
            </Array>
          </mxGeometry>
        </mxCell>
        <mxCell id="7b5LlYf9EWcfWmNwyogH-38" value="n" style="edgeLabel;html=1;align=center;verticalAlign=middle;resizable=0;points=[];" vertex="1" connectable="0" parent="G2tgGchUtFlRo7yquWQq-40">
          <mxGeometry x="0.05" relative="1" as="geometry">
            <mxPoint as="offset" />
          </mxGeometry>
        </mxCell>
        <mxCell id="G2tgGchUtFlRo7yquWQq-38" value="beinhaltet" style="rhombus;whiteSpace=wrap;html=1;" parent="1" vertex="1">
          <mxGeometry x="454" y="190" width="80" height="30" as="geometry" />
        </mxCell>
        <mxCell id="G2tgGchUtFlRo7yquWQq-42" value="&lt;u&gt;produktnr&lt;/u&gt;" style="ellipse;whiteSpace=wrap;html=1;" parent="1" vertex="1">
          <mxGeometry x="520" y="130" width="120" height="40" as="geometry" />
        </mxCell>
        <mxCell id="G2tgGchUtFlRo7yquWQq-43" value="titel" style="ellipse;whiteSpace=wrap;html=1;" parent="1" vertex="1">
          <mxGeometry x="650" y="130" width="120" height="40" as="geometry" />
        </mxCell>
        <mxCell id="G2tgGchUtFlRo7yquWQq-44" value="verkaufsrang" style="ellipse;whiteSpace=wrap;html=1;" parent="1" vertex="1">
          <mxGeometry x="474" y="250" width="120" height="40" as="geometry" />
        </mxCell>
        <mxCell id="G2tgGchUtFlRo7yquWQq-45" value="rating" style="ellipse;whiteSpace=wrap;html=1;" parent="1" vertex="1">
          <mxGeometry x="600" y="290" width="120" height="40" as="geometry" />
        </mxCell>
        <mxCell id="G2tgGchUtFlRo7yquWQq-46" value="bild" style="ellipse;whiteSpace=wrap;html=1;dashed=1;" parent="1" vertex="1">
          <mxGeometry x="730" y="245" width="120" height="40" as="geometry" />
        </mxCell>
        <mxCell id="G2tgGchUtFlRo7yquWQq-50" style="edgeStyle=orthogonalEdgeStyle;rounded=0;orthogonalLoop=1;jettySize=auto;html=1;entryX=0.694;entryY=0.027;entryDx=0;entryDy=0;entryPerimeter=0;endArrow=none;startFill=0;" parent="1" edge="1">
          <mxGeometry relative="1" as="geometry">
            <mxPoint x="597" y="240" as="sourcePoint" />
            <mxPoint x="554.2800000000001" y="251.07999999999998" as="targetPoint" />
            <Array as="points">
              <mxPoint x="597" y="251" />
            </Array>
          </mxGeometry>
        </mxCell>
        <mxCell id="G2tgGchUtFlRo7yquWQq-55" value="" style="edgeStyle=orthogonalEdgeStyle;rounded=0;orthogonalLoop=1;jettySize=auto;html=1;endArrow=none;startFill=0;" parent="1" source="G2tgGchUtFlRo7yquWQq-53" target="G2tgGchUtFlRo7yquWQq-29" edge="1">
          <mxGeometry relative="1" as="geometry" />
        </mxCell>
        <mxCell id="7b5LlYf9EWcfWmNwyogH-13" value="(1...n)" style="edgeLabel;html=1;align=center;verticalAlign=middle;resizable=0;points=[];" vertex="1" connectable="0" parent="G2tgGchUtFlRo7yquWQq-55">
          <mxGeometry x="0.77" relative="1" as="geometry">
            <mxPoint as="offset" />
          </mxGeometry>
        </mxCell>
        <mxCell id="G2tgGchUtFlRo7yquWQq-53" value="gehoert_zu" style="rhombus;whiteSpace=wrap;html=1;" parent="1" vertex="1">
          <mxGeometry x="760" y="205" width="80" height="30" as="geometry" />
        </mxCell>
        <mxCell id="G2tgGchUtFlRo7yquWQq-56" value="&lt;u&gt;kategorie_id&lt;/u&gt;" style="ellipse;whiteSpace=wrap;html=1;" parent="1" vertex="1">
          <mxGeometry x="760" y="90" width="120" height="40" as="geometry" />
        </mxCell>
        <mxCell id="G2tgGchUtFlRo7yquWQq-57" value="name" style="ellipse;whiteSpace=wrap;html=1;" parent="1" vertex="1">
          <mxGeometry x="1030" y="135" width="120" height="40" as="geometry" />
        </mxCell>
        <mxCell id="7b5LlYf9EWcfWmNwyogH-42" style="edgeStyle=orthogonalEdgeStyle;rounded=0;orthogonalLoop=1;jettySize=auto;html=1;endArrow=none;startFill=0;entryX=1.018;entryY=0.905;entryDx=0;entryDy=0;entryPerimeter=0;" edge="1" parent="1" source="G2tgGchUtFlRo7yquWQq-58" target="G2tgGchUtFlRo7yquWQq-29">
          <mxGeometry relative="1" as="geometry" />
        </mxCell>
        <mxCell id="G2tgGchUtFlRo7yquWQq-58" value="eltern_id&lt;div&gt;(nullable)&lt;/div&gt;" style="ellipse;whiteSpace=wrap;html=1;" parent="1" vertex="1">
          <mxGeometry x="1040" y="180" width="120" height="40" as="geometry" />
        </mxCell>
        <mxCell id="G2tgGchUtFlRo7yquWQq-60" style="edgeStyle=orthogonalEdgeStyle;rounded=0;orthogonalLoop=1;jettySize=auto;html=1;entryX=0.75;entryY=1;entryDx=0;entryDy=0;entryPerimeter=0;endArrow=none;startFill=0;" parent="1" source="G2tgGchUtFlRo7yquWQq-29" target="G2tgGchUtFlRo7yquWQq-56" edge="1">
          <mxGeometry relative="1" as="geometry">
            <Array as="points">
              <mxPoint x="860" y="160" />
              <mxPoint x="860" y="150" />
              <mxPoint x="850" y="150" />
            </Array>
          </mxGeometry>
        </mxCell>
        <mxCell id="G2tgGchUtFlRo7yquWQq-62" value="&lt;u&gt;filial_id&lt;/u&gt;" style="ellipse;whiteSpace=wrap;html=1;" parent="1" vertex="1">
          <mxGeometry x="970" y="315" width="120" height="40" as="geometry" />
        </mxCell>
        <mxCell id="G2tgGchUtFlRo7yquWQq-63" value="anschrift" style="ellipse;whiteSpace=wrap;html=1;" parent="1" vertex="1">
          <mxGeometry x="890" y="425" width="120" height="40" as="geometry" />
        </mxCell>
        <mxCell id="G2tgGchUtFlRo7yquWQq-64" value="name" style="ellipse;whiteSpace=wrap;html=1;" parent="1" vertex="1">
          <mxGeometry x="990" y="390" width="120" height="40" as="geometry" />
        </mxCell>
        <mxCell id="G2tgGchUtFlRo7yquWQq-72" value="" style="edgeStyle=orthogonalEdgeStyle;rounded=0;orthogonalLoop=1;jettySize=auto;html=1;endArrow=none;startFill=0;" parent="1" source="G2tgGchUtFlRo7yquWQq-71" target="G2tgGchUtFlRo7yquWQq-30" edge="1">
          <mxGeometry relative="1" as="geometry" />
        </mxCell>
        <mxCell id="7b5LlYf9EWcfWmNwyogH-26" style="edgeStyle=orthogonalEdgeStyle;rounded=0;orthogonalLoop=1;jettySize=auto;html=1;entryX=0;entryY=0.5;entryDx=0;entryDy=0;exitX=0.667;exitY=0.207;exitDx=0;exitDy=0;exitPerimeter=0;endArrow=none;startFill=0;" edge="1" parent="1" source="G2tgGchUtFlRo7yquWQq-71" target="7b5LlYf9EWcfWmNwyogH-25">
          <mxGeometry relative="1" as="geometry">
            <Array as="points">
              <mxPoint x="753" y="358" />
              <mxPoint x="760" y="358" />
              <mxPoint x="760" y="350" />
              <mxPoint x="815" y="350" />
              <mxPoint x="815" y="325" />
            </Array>
          </mxGeometry>
        </mxCell>
        <mxCell id="G2tgGchUtFlRo7yquWQq-71" value="verkauft" style="rhombus;whiteSpace=wrap;html=1;" parent="1" vertex="1">
          <mxGeometry x="700" y="355" width="80" height="30" as="geometry" />
        </mxCell>
        <mxCell id="G2tgGchUtFlRo7yquWQq-74" style="edgeStyle=orthogonalEdgeStyle;rounded=0;orthogonalLoop=1;jettySize=auto;html=1;entryX=0.673;entryY=1.021;entryDx=0;entryDy=0;entryPerimeter=0;endArrow=none;startFill=0;" parent="1" source="G2tgGchUtFlRo7yquWQq-71" target="G2tgGchUtFlRo7yquWQq-28" edge="1">
          <mxGeometry relative="1" as="geometry">
            <Array as="points">
              <mxPoint x="730" y="280" />
              <mxPoint x="657" y="280" />
            </Array>
          </mxGeometry>
        </mxCell>
        <mxCell id="G2tgGchUtFlRo7yquWQq-75" value="name" style="ellipse;whiteSpace=wrap;html=1;" parent="1" vertex="1">
          <mxGeometry x="130" y="290" width="120" height="40" as="geometry" />
        </mxCell>
        <mxCell id="G2tgGchUtFlRo7yquWQq-76" value="produktnr" style="ellipse;whiteSpace=wrap;html=1;" parent="1" vertex="1">
          <mxGeometry x="150" y="345" width="120" height="40" as="geometry" />
        </mxCell>
        <mxCell id="G2tgGchUtFlRo7yquWQq-77" value="punkte" style="ellipse;whiteSpace=wrap;html=1;" parent="1" vertex="1">
          <mxGeometry x="280" y="345" width="120" height="40" as="geometry" />
        </mxCell>
        <mxCell id="G2tgGchUtFlRo7yquWQq-79" value="kommentar" style="ellipse;whiteSpace=wrap;html=1;" parent="1" vertex="1">
          <mxGeometry x="414" y="345" width="120" height="40" as="geometry" />
        </mxCell>
        <mxCell id="G2tgGchUtFlRo7yquWQq-82" style="edgeStyle=orthogonalEdgeStyle;rounded=0;orthogonalLoop=1;jettySize=auto;html=1;endArrow=none;startFill=0;" parent="1" source="G2tgGchUtFlRo7yquWQq-80" target="G2tgGchUtFlRo7yquWQq-2" edge="1">
          <mxGeometry relative="1" as="geometry" />
        </mxCell>
        <mxCell id="G2tgGchUtFlRo7yquWQq-83" style="edgeStyle=orthogonalEdgeStyle;rounded=0;orthogonalLoop=1;jettySize=auto;html=1;endArrow=none;startFill=0;" parent="1" source="G2tgGchUtFlRo7yquWQq-80" target="G2tgGchUtFlRo7yquWQq-31" edge="1">
          <mxGeometry relative="1" as="geometry" />
        </mxCell>
        <mxCell id="G2tgGchUtFlRo7yquWQq-80" value="schreibt" style="rhombus;whiteSpace=wrap;html=1;" parent="1" vertex="1">
          <mxGeometry x="230" y="185" width="80" height="30" as="geometry" />
        </mxCell>
        <mxCell id="G2tgGchUtFlRo7yquWQq-81" value="&lt;u&gt;rezension_id&lt;/u&gt;" style="ellipse;whiteSpace=wrap;html=1;" parent="1" vertex="1">
          <mxGeometry x="140" y="230" width="120" height="40" as="geometry" />
        </mxCell>
        <mxCell id="G2tgGchUtFlRo7yquWQq-86" style="edgeStyle=orthogonalEdgeStyle;rounded=0;orthogonalLoop=1;jettySize=auto;html=1;exitX=1;exitY=0.5;exitDx=0;exitDy=0;entryX=0;entryY=0.5;entryDx=0;entryDy=0;endArrow=none;startFill=0;" parent="1" source="G2tgGchUtFlRo7yquWQq-84" target="G2tgGchUtFlRo7yquWQq-28" edge="1">
          <mxGeometry relative="1" as="geometry">
            <Array as="points">
              <mxPoint x="480" y="240" />
              <mxPoint x="535" y="240" />
              <mxPoint x="535" y="220" />
            </Array>
          </mxGeometry>
        </mxCell>
        <mxCell id="G2tgGchUtFlRo7yquWQq-84" value="bewertet" style="rhombus;whiteSpace=wrap;html=1;" parent="1" vertex="1">
          <mxGeometry x="400" y="240" width="80" height="30" as="geometry" />
        </mxCell>
        <mxCell id="G2tgGchUtFlRo7yquWQq-90" value="" style="edgeStyle=orthogonalEdgeStyle;rounded=0;orthogonalLoop=1;jettySize=auto;html=1;endArrow=none;startFill=0;" parent="1" source="G2tgGchUtFlRo7yquWQq-32" target="G2tgGchUtFlRo7yquWQq-89" edge="1">
          <mxGeometry relative="1" as="geometry">
            <mxPoint x="470" y="430" as="sourcePoint" />
            <mxPoint x="600" y="240" as="targetPoint" />
            <Array as="points" />
          </mxGeometry>
        </mxCell>
        <mxCell id="G2tgGchUtFlRo7yquWQq-91" style="edgeStyle=orthogonalEdgeStyle;rounded=0;orthogonalLoop=1;jettySize=auto;html=1;endArrow=none;startFill=0;" parent="1" target="G2tgGchUtFlRo7yquWQq-34" edge="1">
          <mxGeometry relative="1" as="geometry">
            <mxPoint x="621" y="399" as="sourcePoint" />
            <mxPoint x="454" y="770.25" as="targetPoint" />
            <Array as="points">
              <mxPoint x="610" y="399" />
              <mxPoint x="610" y="690" />
            </Array>
          </mxGeometry>
        </mxCell>
        <mxCell id="G2tgGchUtFlRo7yquWQq-109" style="edgeStyle=orthogonalEdgeStyle;rounded=0;orthogonalLoop=1;jettySize=auto;html=1;entryX=0;entryY=0.75;entryDx=0;entryDy=0;endArrow=none;startFill=0;" parent="1" source="G2tgGchUtFlRo7yquWQq-89" target="G2tgGchUtFlRo7yquWQq-35" edge="1">
          <mxGeometry relative="1" as="geometry">
            <Array as="points">
              <mxPoint x="620" y="500" />
            </Array>
          </mxGeometry>
        </mxCell>
        <mxCell id="G2tgGchUtFlRo7yquWQq-89" value="ist" style="rhombus;whiteSpace=wrap;html=1;" parent="1" vertex="1">
          <mxGeometry x="560" y="380" width="80" height="30" as="geometry" />
        </mxCell>
        <mxCell id="G2tgGchUtFlRo7yquWQq-94" style="edgeStyle=orthogonalEdgeStyle;rounded=0;orthogonalLoop=1;jettySize=auto;html=1;entryX=0.673;entryY=0.006;entryDx=0;entryDy=0;entryPerimeter=0;endArrow=none;startFill=0;" parent="1" source="G2tgGchUtFlRo7yquWQq-31" target="G2tgGchUtFlRo7yquWQq-75" edge="1">
          <mxGeometry relative="1" as="geometry">
            <Array as="points">
              <mxPoint x="211" y="290" />
            </Array>
          </mxGeometry>
        </mxCell>
        <mxCell id="G2tgGchUtFlRo7yquWQq-95" style="edgeStyle=orthogonalEdgeStyle;rounded=0;orthogonalLoop=1;jettySize=auto;html=1;endArrow=none;startFill=0;" parent="1" source="G2tgGchUtFlRo7yquWQq-31" target="G2tgGchUtFlRo7yquWQq-76" edge="1">
          <mxGeometry relative="1" as="geometry">
            <Array as="points">
              <mxPoint x="260" y="300" />
            </Array>
          </mxGeometry>
        </mxCell>
        <mxCell id="G2tgGchUtFlRo7yquWQq-99" value="&lt;u&gt;isbn&lt;/u&gt;" style="ellipse;whiteSpace=wrap;html=1;" parent="1" vertex="1">
          <mxGeometry x="220" y="410" width="120" height="40" as="geometry" />
        </mxCell>
        <mxCell id="G2tgGchUtFlRo7yquWQq-100" value="seitenzahl" style="ellipse;whiteSpace=wrap;html=1;" parent="1" vertex="1">
          <mxGeometry x="180" y="465" width="120" height="40" as="geometry" />
        </mxCell>
        <mxCell id="G2tgGchUtFlRo7yquWQq-101" value="erscheinungsdatum" style="ellipse;whiteSpace=wrap;html=1;" parent="1" vertex="1">
          <mxGeometry x="210" y="520" width="120" height="40" as="geometry" />
        </mxCell>
        <mxCell id="G2tgGchUtFlRo7yquWQq-102" value="verlag" style="ellipse;whiteSpace=wrap;html=1;" parent="1" vertex="1">
          <mxGeometry x="290" y="555" width="120" height="40" as="geometry" />
        </mxCell>
        <mxCell id="G2tgGchUtFlRo7yquWQq-103" value="produktnr (fk)" style="ellipse;whiteSpace=wrap;html=1;" parent="1" vertex="1">
          <mxGeometry x="380" y="520" width="120" height="40" as="geometry" />
        </mxCell>
        <mxCell id="G2tgGchUtFlRo7yquWQq-104" value="&lt;u&gt;produktnr&lt;/u&gt;" style="ellipse;whiteSpace=wrap;html=1;" parent="1" vertex="1">
          <mxGeometry x="247" y="610" width="120" height="40" as="geometry" />
        </mxCell>
        <mxCell id="G2tgGchUtFlRo7yquWQq-105" value="format" style="ellipse;whiteSpace=wrap;html=1;" parent="1" vertex="1">
          <mxGeometry x="200" y="650" width="120" height="40" as="geometry" />
        </mxCell>
        <mxCell id="G2tgGchUtFlRo7yquWQq-106" value="laufzeit" style="ellipse;whiteSpace=wrap;html=1;" parent="1" vertex="1">
          <mxGeometry x="270" y="730" width="120" height="40" as="geometry" />
        </mxCell>
        <mxCell id="G2tgGchUtFlRo7yquWQq-107" value="region_code" style="ellipse;whiteSpace=wrap;html=1;" parent="1" vertex="1">
          <mxGeometry x="390" y="750" width="120" height="40" as="geometry" />
        </mxCell>
        <mxCell id="G2tgGchUtFlRo7yquWQq-108" value="beteiligt" style="rhombus;whiteSpace=wrap;html=1;" parent="1" vertex="1">
          <mxGeometry x="190" y="710" width="80" height="30" as="geometry" />
        </mxCell>
        <mxCell id="G2tgGchUtFlRo7yquWQq-110" value="&lt;u&gt;produktnr&lt;/u&gt;" style="ellipse;whiteSpace=wrap;html=1;" parent="1" vertex="1">
          <mxGeometry x="730" y="410" width="120" height="40" as="geometry" />
        </mxCell>
        <mxCell id="G2tgGchUtFlRo7yquWQq-111" value="label" style="ellipse;whiteSpace=wrap;html=1;" parent="1" vertex="1">
          <mxGeometry x="780" y="450" width="120" height="40" as="geometry" />
        </mxCell>
        <mxCell id="G2tgGchUtFlRo7yquWQq-112" value="erscheinungsdatum" style="ellipse;whiteSpace=wrap;html=1;" parent="1" vertex="1">
          <mxGeometry x="720" y="520" width="120" height="40" as="geometry" />
        </mxCell>
        <mxCell id="G2tgGchUtFlRo7yquWQq-132" style="edgeStyle=orthogonalEdgeStyle;rounded=0;orthogonalLoop=1;jettySize=auto;html=1;entryX=0;entryY=0.25;entryDx=0;entryDy=0;endArrow=none;startFill=0;" parent="1" source="G2tgGchUtFlRo7yquWQq-115" target="G2tgGchUtFlRo7yquWQq-37" edge="1">
          <mxGeometry relative="1" as="geometry">
            <mxPoint x="930" y="600.5555555555555" as="targetPoint" />
            <Array as="points">
              <mxPoint x="890" y="580" />
            </Array>
          </mxGeometry>
        </mxCell>
        <mxCell id="7b5LlYf9EWcfWmNwyogH-11" value="(1...n)" style="edgeLabel;html=1;align=center;verticalAlign=middle;resizable=0;points=[];" vertex="1" connectable="0" parent="G2tgGchUtFlRo7yquWQq-132">
          <mxGeometry x="0.6636" relative="1" as="geometry">
            <mxPoint as="offset" />
          </mxGeometry>
        </mxCell>
        <mxCell id="G2tgGchUtFlRo7yquWQq-115" value="ist_von" style="rhombus;whiteSpace=wrap;html=1;" parent="1" vertex="1">
          <mxGeometry x="850" y="510" width="80" height="30" as="geometry" />
        </mxCell>
        <mxCell id="G2tgGchUtFlRo7yquWQq-127" style="edgeStyle=orthogonalEdgeStyle;rounded=0;orthogonalLoop=1;jettySize=auto;html=1;endArrow=none;startFill=0;" parent="1" source="G2tgGchUtFlRo7yquWQq-116" target="G2tgGchUtFlRo7yquWQq-36" edge="1">
          <mxGeometry relative="1" as="geometry" />
        </mxCell>
        <mxCell id="7b5LlYf9EWcfWmNwyogH-9" value="n" style="edgeLabel;html=1;align=center;verticalAlign=middle;resizable=0;points=[];" vertex="1" connectable="0" parent="G2tgGchUtFlRo7yquWQq-127">
          <mxGeometry x="0.45" relative="1" as="geometry">
            <mxPoint as="offset" />
          </mxGeometry>
        </mxCell>
        <mxCell id="G2tgGchUtFlRo7yquWQq-116" value="beinhaltet" style="rhombus;whiteSpace=wrap;html=1;" parent="1" vertex="1">
          <mxGeometry x="640" y="560" width="80" height="30" as="geometry" />
        </mxCell>
        <mxCell id="G2tgGchUtFlRo7yquWQq-117" value="&lt;u&gt;lied_id&lt;/u&gt;" style="ellipse;whiteSpace=wrap;html=1;" parent="1" vertex="1">
          <mxGeometry x="740" y="640" width="120" height="40" as="geometry" />
        </mxCell>
        <mxCell id="G2tgGchUtFlRo7yquWQq-118" value="name" style="ellipse;whiteSpace=wrap;html=1;" parent="1" vertex="1">
          <mxGeometry x="720" y="700" width="120" height="40" as="geometry" />
        </mxCell>
        <mxCell id="G2tgGchUtFlRo7yquWQq-119" value="produktnr (CD)" style="ellipse;whiteSpace=wrap;html=1;" parent="1" vertex="1">
          <mxGeometry x="600" y="690" width="120" height="40" as="geometry" />
        </mxCell>
        <mxCell id="G2tgGchUtFlRo7yquWQq-120" value="&lt;u&gt;kuenstler_in_id&lt;/u&gt;" style="ellipse;whiteSpace=wrap;html=1;" parent="1" vertex="1">
          <mxGeometry x="1050" y="520" width="120" height="40" as="geometry" />
        </mxCell>
        <mxCell id="G2tgGchUtFlRo7yquWQq-121" value="name" style="ellipse;whiteSpace=wrap;html=1;" parent="1" vertex="1">
          <mxGeometry x="1060" y="610" width="120" height="40" as="geometry" />
        </mxCell>
        <mxCell id="G2tgGchUtFlRo7yquWQq-124" style="edgeStyle=orthogonalEdgeStyle;rounded=0;orthogonalLoop=1;jettySize=auto;html=1;entryX=0.096;entryY=0.217;entryDx=0;entryDy=0;entryPerimeter=0;endArrow=none;startFill=0;" parent="1" source="G2tgGchUtFlRo7yquWQq-35" target="G2tgGchUtFlRo7yquWQq-112" edge="1">
          <mxGeometry relative="1" as="geometry">
            <Array as="points">
              <mxPoint x="730" y="530" />
              <mxPoint x="731" y="530" />
            </Array>
          </mxGeometry>
        </mxCell>
        <mxCell id="G2tgGchUtFlRo7yquWQq-128" style="edgeStyle=orthogonalEdgeStyle;rounded=0;orthogonalLoop=1;jettySize=auto;html=1;endArrow=none;startFill=0;" parent="1" source="G2tgGchUtFlRo7yquWQq-36" edge="1">
          <mxGeometry relative="1" as="geometry">
            <mxPoint x="680" y="690" as="targetPoint" />
            <Array as="points">
              <mxPoint x="680" y="692" />
            </Array>
          </mxGeometry>
        </mxCell>
        <mxCell id="G2tgGchUtFlRo7yquWQq-129" style="edgeStyle=orthogonalEdgeStyle;rounded=0;orthogonalLoop=1;jettySize=auto;html=1;entryX=0.062;entryY=0.254;entryDx=0;entryDy=0;entryPerimeter=0;endArrow=none;startFill=0;" parent="1" source="G2tgGchUtFlRo7yquWQq-36" target="G2tgGchUtFlRo7yquWQq-117" edge="1">
          <mxGeometry relative="1" as="geometry">
            <Array as="points">
              <mxPoint x="745" y="650" />
            </Array>
          </mxGeometry>
        </mxCell>
        <mxCell id="G2tgGchUtFlRo7yquWQq-130" style="edgeStyle=orthogonalEdgeStyle;rounded=0;orthogonalLoop=1;jettySize=auto;html=1;entryX=0.234;entryY=0.088;entryDx=0;entryDy=0;entryPerimeter=0;endArrow=none;startFill=0;" parent="1" source="G2tgGchUtFlRo7yquWQq-36" target="G2tgGchUtFlRo7yquWQq-118" edge="1">
          <mxGeometry relative="1" as="geometry">
            <Array as="points">
              <mxPoint x="720" y="690" />
              <mxPoint x="748" y="690" />
            </Array>
          </mxGeometry>
        </mxCell>
        <mxCell id="G2tgGchUtFlRo7yquWQq-131" style="edgeStyle=orthogonalEdgeStyle;rounded=0;orthogonalLoop=1;jettySize=auto;html=1;endArrow=none;startFill=0;entryX=0.5;entryY=0;entryDx=0;entryDy=0;" parent="1" source="G2tgGchUtFlRo7yquWQq-35" target="G2tgGchUtFlRo7yquWQq-115" edge="1">
          <mxGeometry relative="1" as="geometry">
            <mxPoint x="850" y="525" as="targetPoint" />
            <Array as="points">
              <mxPoint x="890" y="500" />
            </Array>
          </mxGeometry>
        </mxCell>
        <mxCell id="7b5LlYf9EWcfWmNwyogH-12" value="m" style="edgeLabel;html=1;align=center;verticalAlign=middle;resizable=0;points=[];" vertex="1" connectable="0" parent="G2tgGchUtFlRo7yquWQq-131">
          <mxGeometry x="-0.7346" relative="1" as="geometry">
            <mxPoint as="offset" />
          </mxGeometry>
        </mxCell>
        <mxCell id="G2tgGchUtFlRo7yquWQq-135" style="edgeStyle=orthogonalEdgeStyle;rounded=0;orthogonalLoop=1;jettySize=auto;html=1;entryX=1;entryY=0.5;entryDx=0;entryDy=0;endArrow=none;startFill=0;" parent="1" source="G2tgGchUtFlRo7yquWQq-32" target="G2tgGchUtFlRo7yquWQq-99" edge="1">
          <mxGeometry relative="1" as="geometry">
            <Array as="points">
              <mxPoint x="350" y="440" />
              <mxPoint x="350" y="431" />
              <mxPoint x="340" y="431" />
            </Array>
          </mxGeometry>
        </mxCell>
        <mxCell id="G2tgGchUtFlRo7yquWQq-137" style="edgeStyle=orthogonalEdgeStyle;rounded=0;orthogonalLoop=1;jettySize=auto;html=1;entryX=0.933;entryY=0.25;entryDx=0;entryDy=0;entryPerimeter=0;endArrow=none;startFill=0;" parent="1" source="G2tgGchUtFlRo7yquWQq-32" target="G2tgGchUtFlRo7yquWQq-101" edge="1">
          <mxGeometry relative="1" as="geometry">
            <Array as="points">
              <mxPoint x="340" y="460" />
              <mxPoint x="340" y="530" />
            </Array>
          </mxGeometry>
        </mxCell>
        <mxCell id="G2tgGchUtFlRo7yquWQq-140" style="edgeStyle=orthogonalEdgeStyle;rounded=0;orthogonalLoop=1;jettySize=auto;html=1;entryX=1.003;entryY=0.454;entryDx=0;entryDy=0;entryPerimeter=0;endArrow=none;startFill=0;" parent="1" source="G2tgGchUtFlRo7yquWQq-34" target="G2tgGchUtFlRo7yquWQq-104" edge="1">
          <mxGeometry relative="1" as="geometry" />
        </mxCell>
        <mxCell id="G2tgGchUtFlRo7yquWQq-141" style="edgeStyle=orthogonalEdgeStyle;rounded=0;orthogonalLoop=1;jettySize=auto;html=1;entryX=1.017;entryY=0.551;entryDx=0;entryDy=0;entryPerimeter=0;endArrow=none;startFill=0;" parent="1" source="G2tgGchUtFlRo7yquWQq-34" target="G2tgGchUtFlRo7yquWQq-105" edge="1">
          <mxGeometry relative="1" as="geometry" />
        </mxCell>
        <mxCell id="G2tgGchUtFlRo7yquWQq-142" style="edgeStyle=orthogonalEdgeStyle;rounded=0;orthogonalLoop=1;jettySize=auto;html=1;entryX=0.583;entryY=0;entryDx=0;entryDy=0;entryPerimeter=0;endArrow=none;startFill=0;" parent="1" source="G2tgGchUtFlRo7yquWQq-34" target="G2tgGchUtFlRo7yquWQq-106" edge="1">
          <mxGeometry relative="1" as="geometry">
            <Array as="points">
              <mxPoint x="390" y="730" />
            </Array>
          </mxGeometry>
        </mxCell>
        <mxCell id="G2tgGchUtFlRo7yquWQq-143" style="edgeStyle=orthogonalEdgeStyle;rounded=0;orthogonalLoop=1;jettySize=auto;html=1;entryX=0.455;entryY=-0.018;entryDx=0;entryDy=0;entryPerimeter=0;endArrow=none;startFill=0;" parent="1" source="G2tgGchUtFlRo7yquWQq-34" target="G2tgGchUtFlRo7yquWQq-107" edge="1">
          <mxGeometry relative="1" as="geometry" />
        </mxCell>
        <mxCell id="G2tgGchUtFlRo7yquWQq-145" style="edgeStyle=orthogonalEdgeStyle;rounded=0;orthogonalLoop=1;jettySize=auto;html=1;endArrow=none;startFill=0;" parent="1" source="G2tgGchUtFlRo7yquWQq-108" target="G2tgGchUtFlRo7yquWQq-33" edge="1">
          <mxGeometry relative="1" as="geometry">
            <Array as="points">
              <mxPoint x="160" y="725" />
              <mxPoint x="160" y="725" />
            </Array>
          </mxGeometry>
        </mxCell>
        <mxCell id="7b5LlYf9EWcfWmNwyogH-1" value="autor_in" style="ellipse;whiteSpace=wrap;html=1;" vertex="1" parent="1">
          <mxGeometry x="470" y="470" width="120" height="40" as="geometry" />
        </mxCell>
        <mxCell id="7b5LlYf9EWcfWmNwyogH-3" value="&lt;u&gt;rolle&lt;/u&gt;" style="ellipse;whiteSpace=wrap;html=1;" vertex="1" parent="1">
          <mxGeometry x="-10" y="780" width="120" height="40" as="geometry" />
        </mxCell>
        <mxCell id="7b5LlYf9EWcfWmNwyogH-5" value="&lt;u&gt;name&lt;/u&gt;" style="ellipse;whiteSpace=wrap;html=1;" vertex="1" parent="1">
          <mxGeometry x="70" y="640" width="120" height="40" as="geometry" />
        </mxCell>
        <mxCell id="7b5LlYf9EWcfWmNwyogH-14" value="Hauptkategorie und Unterkategorie unterscheiden?" style="shape=note;whiteSpace=wrap;html=1;backgroundOutline=1;fontColor=#000000;darkOpacity=0.05;fillColor=#FFF9B2;strokeColor=none;fillStyle=solid;direction=west;gradientDirection=north;gradientColor=#FFF2A1;shadow=1;size=20;pointerEvents=1;" vertex="1" parent="1">
          <mxGeometry x="1140" y="85" width="140" height="70" as="geometry" />
        </mxCell>
        <mxCell id="7b5LlYf9EWcfWmNwyogH-16" style="edgeStyle=orthogonalEdgeStyle;rounded=0;orthogonalLoop=1;jettySize=auto;html=1;endArrow=none;startFill=0;" edge="1" parent="1" source="7b5LlYf9EWcfWmNwyogH-15" target="G2tgGchUtFlRo7yquWQq-28">
          <mxGeometry relative="1" as="geometry" />
        </mxCell>
        <mxCell id="7b5LlYf9EWcfWmNwyogH-17" value="m" style="edgeLabel;html=1;align=center;verticalAlign=middle;resizable=0;points=[];" vertex="1" connectable="0" parent="7b5LlYf9EWcfWmNwyogH-16">
          <mxGeometry x="0.8346" relative="1" as="geometry">
            <mxPoint as="offset" />
          </mxGeometry>
        </mxCell>
        <mxCell id="7b5LlYf9EWcfWmNwyogH-18" value="n" style="edgeLabel;html=1;align=center;verticalAlign=middle;resizable=0;points=[];" vertex="1" connectable="0" parent="7b5LlYf9EWcfWmNwyogH-16">
          <mxGeometry x="-0.8015" y="2" relative="1" as="geometry">
            <mxPoint as="offset" />
          </mxGeometry>
        </mxCell>
        <mxCell id="7b5LlYf9EWcfWmNwyogH-15" value="aehnlich" style="rhombus;whiteSpace=wrap;html=1;" vertex="1" parent="1">
          <mxGeometry x="600" y="75" width="80" height="30" as="geometry" />
        </mxCell>
        <mxCell id="7b5LlYf9EWcfWmNwyogH-20" value="preis" style="ellipse;whiteSpace=wrap;html=1;" vertex="1" parent="1">
          <mxGeometry x="870" y="240" width="120" height="40" as="geometry" />
        </mxCell>
        <mxCell id="7b5LlYf9EWcfWmNwyogH-21" value="zustand" style="ellipse;whiteSpace=wrap;html=1;" vertex="1" parent="1">
          <mxGeometry x="1000" y="240" width="120" height="40" as="geometry" />
        </mxCell>
        <mxCell id="7b5LlYf9EWcfWmNwyogH-25" value="verfuegbarkeit" style="ellipse;whiteSpace=wrap;html=1;" vertex="1" parent="1">
          <mxGeometry x="850" y="305" width="120" height="40" as="geometry" />
        </mxCell>
        <mxCell id="7b5LlYf9EWcfWmNwyogH-27" style="edgeStyle=orthogonalEdgeStyle;rounded=0;orthogonalLoop=1;jettySize=auto;html=1;entryX=0.149;entryY=0.808;entryDx=0;entryDy=0;entryPerimeter=0;endArrow=none;startFill=0;" edge="1" parent="1" source="G2tgGchUtFlRo7yquWQq-71" target="7b5LlYf9EWcfWmNwyogH-20">
          <mxGeometry relative="1" as="geometry">
            <Array as="points">
              <mxPoint x="740" y="290" />
              <mxPoint x="888" y="290" />
            </Array>
          </mxGeometry>
        </mxCell>
        <mxCell id="7b5LlYf9EWcfWmNwyogH-28" style="edgeStyle=orthogonalEdgeStyle;rounded=0;orthogonalLoop=1;jettySize=auto;html=1;entryX=0.167;entryY=0.864;entryDx=0;entryDy=0;entryPerimeter=0;endArrow=none;startFill=0;" edge="1" parent="1" source="G2tgGchUtFlRo7yquWQq-71" target="7b5LlYf9EWcfWmNwyogH-21">
          <mxGeometry relative="1" as="geometry">
            <Array as="points">
              <mxPoint x="750" y="300" />
              <mxPoint x="1020" y="300" />
            </Array>
          </mxGeometry>
        </mxCell>
        <mxCell id="7b5LlYf9EWcfWmNwyogH-30" style="edgeStyle=orthogonalEdgeStyle;rounded=0;orthogonalLoop=1;jettySize=auto;html=1;endArrow=none;startFill=0;" edge="1" parent="1" source="7b5LlYf9EWcfWmNwyogH-29" target="G2tgGchUtFlRo7yquWQq-29">
          <mxGeometry relative="1" as="geometry">
            <Array as="points">
              <mxPoint x="940" y="120" />
              <mxPoint x="940" y="120" />
            </Array>
          </mxGeometry>
        </mxCell>
        <mxCell id="7b5LlYf9EWcfWmNwyogH-31" style="edgeStyle=orthogonalEdgeStyle;rounded=0;orthogonalLoop=1;jettySize=auto;html=1;entryX=0.397;entryY=0.042;entryDx=0;entryDy=0;entryPerimeter=0;endArrow=none;startFill=0;" edge="1" parent="1" source="7b5LlYf9EWcfWmNwyogH-29" target="G2tgGchUtFlRo7yquWQq-29">
          <mxGeometry relative="1" as="geometry">
            <Array as="points">
              <mxPoint x="920" y="125" />
            </Array>
          </mxGeometry>
        </mxCell>
        <mxCell id="7b5LlYf9EWcfWmNwyogH-29" value="gehoert_zu" style="rhombus;whiteSpace=wrap;html=1;" vertex="1" parent="1">
          <mxGeometry x="890" y="70" width="80" height="30" as="geometry" />
        </mxCell>
        <mxCell id="7b5LlYf9EWcfWmNwyogH-32" value="Ã¼ber" style="text;html=1;align=center;verticalAlign=middle;resizable=0;points=[];autosize=1;strokeColor=none;fillColor=none;" vertex="1" parent="1">
          <mxGeometry x="880" y="110" width="50" height="30" as="geometry" />
        </mxCell>
        <mxCell id="7b5LlYf9EWcfWmNwyogH-33" value="unter" style="text;html=1;align=center;verticalAlign=middle;resizable=0;points=[];autosize=1;strokeColor=none;fillColor=none;" vertex="1" parent="1">
          <mxGeometry x="935" y="110" width="50" height="30" as="geometry" />
        </mxCell>
        <mxCell id="7b5LlYf9EWcfWmNwyogH-34" value="&lt;span style=&quot;color: rgb(38, 42, 49); font-family: -apple-system, BlinkMacSystemFont, &amp;quot;Segoe UI&amp;quot;, Roboto, &amp;quot;Helvetica Neue&amp;quot;, Arial, &amp;quot;Noto Sans&amp;quot;, &amp;quot;Liberation Sans&amp;quot;, sans-serif, &amp;quot;Apple Color Emoji&amp;quot;, &amp;quot;Segoe UI Emoji&amp;quot;, &amp;quot;Segoe UI Symbol&amp;quot;, &amp;quot;Noto Color Emoji&amp;quot;; text-align: left;&quot;&gt;&lt;font&gt;&amp;nbsp;Die VerfÃ¼gbarkeit ist dadurch gekennzeichnet, ob ein Preis vorliegt oder nicht.&lt;/font&gt;&lt;/span&gt;" style="shape=note;whiteSpace=wrap;html=1;backgroundOutline=1;fontColor=#000000;darkOpacity=0.05;fillColor=#FFF9B2;strokeColor=none;fillStyle=solid;direction=west;gradientDirection=north;gradientColor=#FFF2A1;shadow=1;size=20;pointerEvents=1;" vertex="1" parent="1">
          <mxGeometry x="1130" y="245" width="180" height="75" as="geometry" />
        </mxCell>
        <mxCell id="7b5LlYf9EWcfWmNwyogH-39" value="&lt;b&gt;IntegritÃ¤tsbedingungen:&lt;br&gt;&lt;/b&gt;&lt;div&gt;&lt;br&gt;&lt;/div&gt;&lt;div&gt;&lt;b&gt;Produkt&lt;/b&gt;&lt;/div&gt;&lt;div&gt;PK: produktnr&lt;/div&gt;&lt;div&gt;NOT NULL: titel&lt;/div&gt;&lt;div&gt;rating (1,...,5) -&amp;gt; berechnet?&lt;/div&gt;&lt;div&gt;&lt;br&gt;&lt;/div&gt;&lt;div&gt;&lt;b&gt;Buch&lt;/b&gt;&lt;/div&gt;&lt;div&gt;PK: produktnr&lt;/div&gt;&lt;div&gt;FK: produktnr&lt;/div&gt;&lt;div&gt;&lt;/div&gt;NOT NULL: titel, autor_in, produktnr, isbn&lt;div&gt;UNIQUE: isbn&lt;/div&gt;&lt;div&gt;&lt;br&gt;&lt;div&gt;&lt;b&gt;CD&lt;/b&gt;&lt;/div&gt;&lt;div&gt;PK: produktnr&lt;br&gt;FK: produktnr&lt;/div&gt;&lt;div&gt;&lt;br&gt;&lt;/div&gt;&lt;div&gt;&lt;b&gt;DVD&lt;/b&gt;&lt;/div&gt;&lt;div&gt;PK: produktnr&lt;/div&gt;&lt;div&gt;FK: produktnr&lt;/div&gt;&lt;div&gt;&lt;span style=&quot;background-color: transparent; color: light-dark(rgb(0, 0, 0), rgb(237, 237, 237));&quot;&gt;CHECK (char_length(region_code) = 5)&lt;/span&gt;&lt;/div&gt;&lt;div&gt;&lt;br&gt;&lt;/div&gt;&lt;div&gt;&lt;b&gt;Lied&lt;/b&gt;&lt;br&gt;&lt;/div&gt;&lt;div&gt;PK: lied_id&lt;/div&gt;&lt;div&gt;FK: produktnr&lt;/div&gt;&lt;div&gt;NOT NULL: name, produktnr&lt;/div&gt;&lt;div&gt;&lt;br&gt;&lt;/div&gt;&lt;div&gt;&lt;b&gt;Kunde&lt;/b&gt;&lt;/div&gt;&lt;div&gt;PK: name&lt;/div&gt;&lt;div&gt;UNIQUE: kontonr&lt;/div&gt;&lt;div&gt;NOT NULL: adresse, kontonr&lt;/div&gt;&lt;div&gt;&lt;br&gt;&lt;/div&gt;&lt;div&gt;&lt;b&gt;Rezension&lt;/b&gt;&lt;/div&gt;&lt;div&gt;PK: rezension_id&lt;/div&gt;&lt;div&gt;FK: produktnr, name&lt;/div&gt;&lt;div&gt;NOT NULL: punkte, produktnr&lt;/div&gt;&lt;div&gt;punkte (1,...,5)&lt;/div&gt;&lt;div&gt;&lt;br&gt;&lt;/div&gt;&lt;div&gt;&lt;b&gt;Filiale&lt;/b&gt;&lt;/div&gt;&lt;div&gt;PK: filial_id&lt;/div&gt;&lt;div&gt;NOT NULL: name, anschrift&lt;/div&gt;&lt;div&gt;&lt;br&gt;&lt;/div&gt;&lt;div&gt;&lt;b&gt;Kategorie&lt;/b&gt;&lt;/div&gt;&lt;div&gt;PK: kategorie_id&lt;/div&gt;&lt;div&gt;NOT NULL: name&lt;/div&gt;&lt;div&gt;FK: eltern_id&lt;/div&gt;&lt;div&gt;&lt;br&gt;&lt;/div&gt;&lt;div&gt;&lt;b&gt;Kauf&lt;/b&gt;&lt;/div&gt;&lt;div&gt;PK: kauf_id&lt;/div&gt;&lt;div&gt;FK: kunden_id&lt;/div&gt;&lt;div&gt;NOT NULL: zeit, kunden_id&lt;/div&gt;&lt;div&gt;&lt;br&gt;&lt;/div&gt;&lt;div&gt;&lt;br&gt;&lt;/div&gt;&lt;div&gt;&lt;b&gt;DVD_Person&lt;/b&gt;&lt;/div&gt;&lt;div&gt;PK: dvd_id, name, rolle&lt;/div&gt;&lt;div&gt;FK: dvd_id&lt;/div&gt;&lt;div&gt;NOT NULL: name, rolle, dvd_id&lt;/div&gt;&lt;div&gt;&lt;div style=&quot;font-family: Consolas, &amp;quot;Courier New&amp;quot;, monospace; line-height: 19px; white-space: pre;&quot;&gt;&lt;span&gt;&lt;font&gt;(rolle &lt;span style=&quot;color: rgb(0, 0, 255);&quot;&gt;IN&lt;/span&gt; (&lt;span style=&quot;color: rgb(163, 21, 21);&quot;&gt;&#39;Actor&#39;&lt;/span&gt;, &lt;span style=&quot;color: rgb(163, 21, 21);&quot;&gt;&#39;Director&#39;&lt;/span&gt;, &lt;span style=&quot;color: rgb(163, 21, 21);&quot;&gt;&#39;Creator&#39;&lt;/span&gt;))&lt;/font&gt;&lt;/span&gt;&lt;/div&gt;&lt;/div&gt;&lt;div style=&quot;line-height: 19px;&quot;&gt;&lt;font style=&quot;&quot;&gt;&lt;font face=&quot;Consolas, Courier New, monospace&quot;&gt;&lt;span style=&quot;white-space: pre;&quot;&gt;PRIMARY KEY (dvd_id, name, rolle)&lt;/span&gt;&lt;/font&gt;&lt;/font&gt;&lt;/div&gt;&lt;div&gt;&lt;br&gt;&lt;/div&gt;&lt;div&gt;&lt;b&gt;Kuenstler_in&lt;/b&gt;&lt;/div&gt;&lt;div&gt;PK: kuenstler_in_id&lt;/div&gt;&lt;div&gt;NOT NULL: name&lt;/div&gt;&lt;div&gt;&lt;br&gt;&lt;/div&gt;&lt;div&gt;&lt;br&gt;&lt;/div&gt;&lt;div&gt;&lt;b&gt;Zwischentabellen:&lt;/b&gt;&lt;/div&gt;&lt;div&gt;aehnlich (produktnr1, produktnr2)&lt;/div&gt;&lt;div&gt;Produkt_Kategorie(&lt;u&gt;produktnr&lt;/u&gt;, kategorie_id)&lt;/div&gt;&lt;div&gt;CD_Kuenstler_in(produktnr, kuenstler_in_id)&lt;/div&gt;&lt;/div&gt;" style="shape=note;whiteSpace=wrap;html=1;backgroundOutline=1;fontColor=#000000;darkOpacity=0.05;fillColor=#FFF9B2;strokeColor=none;fillStyle=solid;direction=west;gradientDirection=north;gradientColor=#FFF2A1;shadow=1;size=20;pointerEvents=1;align=left;" vertex="1" parent="1">
          <mxGeometry x="-390" y="47.5" width="300" height="1122.5" as="geometry" />
        </mxCell>
        <mxCell id="7b5LlYf9EWcfWmNwyogH-40" value="titel" style="ellipse;whiteSpace=wrap;html=1;" vertex="1" parent="1">
          <mxGeometry x="344" y="385" width="120" height="40" as="geometry" />
        </mxCell>
        <mxCell id="7b5LlYf9EWcfWmNwyogH-41" style="edgeStyle=orthogonalEdgeStyle;rounded=0;orthogonalLoop=1;jettySize=auto;html=1;entryX=0.342;entryY=-0.01;entryDx=0;entryDy=0;entryPerimeter=0;endArrow=none;startFill=0;" edge="1" parent="1" source="7b5LlYf9EWcfWmNwyogH-40" target="G2tgGchUtFlRo7yquWQq-32">
          <mxGeometry relative="1" as="geometry">
            <Array as="points">
              <mxPoint x="410" y="430" />
            </Array>
          </mxGeometry>
        </mxCell>
        <mxCell id="7b5LlYf9EWcfWmNwyogH-43" value="&lt;u&gt;dvd_id&lt;/u&gt;" style="ellipse;whiteSpace=wrap;html=1;" vertex="1" parent="1">
          <mxGeometry x="130" y="780" width="120" height="40" as="geometry" />
        </mxCell>
        <mxCell id="7b5LlYf9EWcfWmNwyogH-44" style="edgeStyle=orthogonalEdgeStyle;rounded=0;orthogonalLoop=1;jettySize=auto;html=1;entryX=0.835;entryY=0.971;entryDx=0;entryDy=0;entryPerimeter=0;endArrow=none;startFill=0;" edge="1" parent="1" source="7b5LlYf9EWcfWmNwyogH-43" target="G2tgGchUtFlRo7yquWQq-33">
          <mxGeometry relative="1" as="geometry" />
        </mxCell>
        <mxCell id="7b5LlYf9EWcfWmNwyogH-45" value="??" style="shape=note;whiteSpace=wrap;html=1;backgroundOutline=1;fontColor=#000000;darkOpacity=0.05;fillColor=#FFF9B2;strokeColor=none;fillStyle=solid;direction=west;gradientDirection=north;gradientColor=#FFF2A1;shadow=1;size=20;pointerEvents=1;" vertex="1" parent="1">
          <mxGeometry x="90" y="280" width="60" height="50" as="geometry" />
        </mxCell>
      </root>
    </mxGraphModel>
  </diagram>
</mxfile>
